<svg width="18" height="19" viewBox="0 0 18 19" fill="none" xmlns="http://www.w3.org/2000/svg">
<path fill-rule="evenodd" clip-rule="evenodd" d="M17.8823 8.69637V17.4799C17.8823 18.3194 17.2151 19 16.3921 19H12.6667C11.8436 19 11.1765 18.3194 11.1765 17.4799V13.6795C11.1765 13.2598 10.8429 12.9195 10.4314 12.9195H7.45097C7.03947 12.9195 6.70587 13.2598 6.70587 13.6795V17.4799C6.70587 18.3194 6.03869 19 5.21568 19H1.49019C0.667183 19 1.72478e-08 18.3194 1.72478e-08 17.4799V8.69637C-6.33681e-05 8.27102 0.174581 7.86509 0.481519 7.57718L7.93249 0.405969L7.94274 0.395518C8.51119 -0.131839 9.37952 -0.131839 9.94798 0.395518C9.95116 0.399235 9.95458 0.402727 9.95822 0.405969L17.4092 7.57718C17.713 7.86659 17.8846 8.27232 17.8823 8.69637Z" fill="white"/>
</svg>
