<svg width="16" height="16" viewBox="0 0 16 16" fill="none" xmlns="http://www.w3.org/2000/svg">
<path fill-rule="evenodd" clip-rule="evenodd" d="M15.4038 14.0377C14.3082 12.1436 12.6198 10.7854 10.6494 10.1416C12.6527 8.94903 13.6124 6.565 12.9939 4.31712C12.3755 2.06924 10.3314 0.511593 8 0.511593C5.6686 0.511593 3.62453 2.06924 3.00609 4.31712C2.38764 6.565 3.34726 8.94903 5.35056 10.1416C3.3802 10.7847 1.69184 12.1429 0.596238 14.0377C0.486858 14.2161 0.482886 14.4397 0.585865 14.6218C0.688843 14.804 0.882548 14.9159 1.09176 14.9141C1.30097 14.9123 1.49273 14.7971 1.59257 14.6132C2.94786 12.2709 5.34336 10.8725 8 10.8725C10.6566 10.8725 13.0521 12.2709 14.4074 14.6132C14.5073 14.7971 14.699 14.9123 14.9082 14.9141C15.1175 14.9159 15.3112 14.804 15.4141 14.6218C15.5171 14.4397 15.5131 14.2161 15.4038 14.0377ZM3.97152 5.69302C3.97152 3.46815 5.77513 1.66454 8 1.66454C10.2249 1.66454 12.0285 3.46815 12.0285 5.69302C12.0285 7.91788 10.2249 9.72149 8 9.72149C5.77612 9.71911 3.9739 7.9169 3.97152 5.69302Z" fill="black" stroke="black"/>
</svg>
