<svg width="16" height="16" viewBox="0 0 16 16" fill="none" xmlns="http://www.w3.org/2000/svg">
<path fill-rule="evenodd" clip-rule="evenodd" d="M15.32 14.5057L11.7186 10.9051C13.887 8.30174 13.6243 4.45328 11.1221 2.16882C8.61997 -0.115648 4.76355 -0.0280046 2.36777 2.36777C-0.0280046 4.76355 -0.115648 8.61997 2.16882 11.1221C4.45328 13.6243 8.30174 13.887 10.9051 11.7186L14.5057 15.32C14.7306 15.5448 15.0951 15.5448 15.32 15.32C15.5448 15.0951 15.5448 14.7306 15.32 14.5057ZM1.6783 6.85704C1.6783 3.9969 3.9969 1.6783 6.85704 1.6783C9.71717 1.6783 12.0358 3.9969 12.0358 6.85704C12.0358 9.71717 9.71717 12.0358 6.85704 12.0358C3.99821 12.0326 1.68147 9.71586 1.6783 6.85704Z" fill="white" stroke="white"/>
</svg>
