<svg width="16" height="14" viewBox="0 0 16 14" fill="none" xmlns="http://www.w3.org/2000/svg">
<path fill-rule="evenodd" clip-rule="evenodd" d="M16 1.14286V10.2857C16 10.9169 15.4883 11.4286 14.8571 11.4286H10.2857C9.33894 11.4286 8.57143 12.1961 8.57143 13.1429C8.57143 13.4584 8.31559 13.7143 8 13.7143C7.68441 13.7143 7.42857 13.4584 7.42857 13.1429C7.42857 12.1961 6.66106 11.4286 5.71429 11.4286H1.14286C0.511675 11.4286 0 10.9169 0 10.2857V1.14286C0 0.511675 0.511675 0 1.14286 0H5.14286C6.40522 0 7.42857 1.02335 7.42857 2.28571V8.57143C7.42857 8.88702 7.68441 9.14286 8 9.14286C8.31559 9.14286 8.57143 8.88702 8.57143 8.57143V2.28571C8.57143 1.02335 9.59478 0 10.8571 0H14.8571C15.4883 0 16 0.511675 16 1.14286Z" fill="white"/>
</svg>
